<svg width="19" height="15" viewBox="0 0 19 15" fill="none" xmlns="http://www.w3.org/2000/svg">
<g clip-path="url(#clip0_5_246)">
<path d="M18.625 7.70509C18.625 7.59767 18.5859 7.50978 18.5078 7.43165L11.9062 0.791031C11.7598 0.625015 11.6523 0.585953 11.5449 0.585953C11.3301 0.585953 11.1641 0.751968 11.1641 0.957046C11.1641 1.06446 11.1934 1.16212 11.2715 1.23048L15.168 5.13673L17.502 7.39259L15.3633 7.33399H0.861328C0.65625 7.33399 0.490234 7.49024 0.490234 7.70509C0.490234 7.91993 0.65625 8.07618 0.861328 8.07618H15.3633L17.502 8.02735L15.168 10.2734L11.2715 14.1797C11.2031 14.248 11.1641 14.3555 11.1641 14.4629C11.1641 14.6582 11.3301 14.8242 11.5449 14.8242C11.6523 14.8242 11.7402 14.7852 11.8184 14.707L18.5078 7.97853C18.5859 7.9004 18.625 7.81251 18.625 7.70509Z" fill="white"/>
</g>
<defs>
<clipPath id="clip0_5_246">
<rect width="19" height="15" fill="white"/>
</clipPath>
</defs>
</svg>
